<?xml version="1.0" encoding="UTF-8"?><svg id="a" xmlns="http://www.w3.org/2000/svg" width="456.28" height="456.28" viewBox="0 0 456.28 456.28">
<title>Instagram black logo - Brandlogos.net</title><path d="M228.14,41.11c60.92,0,68.13.23,92.19,1.33,22.24,1.02,34.32,4.73,42.36,7.86,10.65,4.14,18.25,9.08,26.23,17.07,7.98,7.98,12.93,15.58,17.07,26.23,3.12,8.04,6.84,20.12,7.86,42.36,1.1,24.06,1.33,31.27,1.33,92.19s-.23,68.13-1.33,92.19c-1.02,22.24-4.73,34.32-7.86,42.36-4.14,10.65-9.08,18.25-17.07,26.23-7.98,7.98-15.58,12.93-26.23,17.07-8.04,3.12-20.12,6.84-42.36,7.85-24.05,1.1-31.27,1.33-92.19,1.33s-68.13-.23-92.19-1.33c-22.24-1.01-34.32-4.73-42.36-7.85-10.65-4.14-18.25-9.08-26.23-17.07-7.98-7.98-12.93-15.58-17.07-26.23-3.12-8.04-6.84-20.12-7.86-42.36-1.1-24.06-1.33-31.27-1.33-92.19s.23-68.13,1.33-92.19c1.02-22.24,4.73-34.32,7.86-42.36,4.14-10.65,9.08-18.25,17.07-26.23,7.98-7.98,15.58-12.93,26.23-17.07,8.04-3.12,20.12-6.84,42.36-7.86,24.06-1.1,31.27-1.33,92.19-1.33M228.14,0c-61.96,0-69.73.26-94.06,1.37-24.28,1.11-40.87,4.97-55.38,10.6-15,5.83-27.73,13.63-40.41,26.31-12.68,12.68-20.48,25.41-26.31,40.41-5.64,14.51-9.5,31.1-10.6,55.38-1.11,24.33-1.37,32.1-1.37,94.06s.26,69.73,1.37,94.06c1.11,24.28,4.96,40.87,10.6,55.38,5.83,15,13.63,27.73,26.31,40.41,12.68,12.68,25.41,20.48,40.41,26.31,14.51,5.64,31.09,9.5,55.38,10.6,24.33,1.11,32.1,1.37,94.06,1.37s69.73-.26,94.06-1.37c24.28-1.11,40.87-4.97,55.38-10.6,15-5.83,27.73-13.63,40.41-26.31,12.68-12.68,20.48-25.41,26.31-40.41,5.64-14.51,9.5-31.1,10.6-55.38,1.11-24.33,1.37-32.1,1.37-94.06s-.26-69.73-1.37-94.06c-1.11-24.28-4.96-40.87-10.6-55.38-5.83-15-13.63-27.73-26.31-40.41-12.68-12.68-25.41-20.48-40.41-26.31-14.51-5.64-31.09-9.5-55.38-10.6-24.33-1.11-32.1-1.37-94.06-1.37"/><path d="M228.14,110.99c-64.7,0-117.15,52.45-117.15,117.15s52.45,117.15,117.15,117.15,117.15-52.45,117.15-117.15-52.45-117.15-117.15-117.15M228.14,304.19c-42,0-76.05-34.05-76.05-76.05s34.05-76.05,76.05-76.05,76.05,34.05,76.05,76.05-34.05,76.05-76.05,76.05"/><path d="M377.3,106.36c0,15.12-12.26,27.38-27.38,27.38s-27.38-12.26-27.38-27.38,12.26-27.38,27.38-27.38,27.38,12.26,27.38,27.38"/></svg>